<?xml version="1.0" standalone="no"?>
<!DOCTYPE svg PUBLIC "-//W3C//DTD SVG 20010904//EN"
 "http://www.w3.org/TR/2001/REC-SVG-20010904/DTD/svg10.dtd">
<svg version="1.0" xmlns="http://www.w3.org/2000/svg"
 width="368.000000pt" height="450.000000pt" viewBox="0 0 368.000000 450.000000"
 preserveAspectRatio="xMidYMid meet">

<g transform="translate(0.000000,450.000000) scale(0.100000,-0.100000)"
fill="#000000" stroke="none">
<path d="M99 4479 l-37 -18 22 -43 c18 -38 24 -43 49 -40 19 3 36 16 51 41 48
75 92 85 138 30 l28 -34 20 24 c11 13 20 32 20 42 0 18 -9 19 -127 18 -103 -1
-135 -5 -164 -20z"/>
<path d="M740 4485 c33 -19 55 -19 70 0 11 13 5 15 -41 15 -52 -1 -53 -1 -29
-15z"/>
<path d="M2308 4488 c7 -7 12 -18 12 -25 0 -24 39 -54 65 -49 14 3 25 2 26 -2
3 -30 10 -46 21 -53 20 -13 26 -11 33 11 10 30 61 53 102 45 46 -8 51 -28 20
-90 -15 -28 -27 -57 -27 -62 0 -6 -9 -31 -20 -57 -17 -37 -26 -46 -46 -46 -14
0 -23 -4 -19 -10 3 -5 6 -25 7 -45 1 -28 6 -37 25 -41 13 -4 23 -14 23 -24 0
-10 3 -25 6 -34 4 -11 1 -16 -10 -16 -10 0 -16 -9 -16 -24 0 -14 -10 -32 -22
-40 -25 -18 -58 -21 -58 -7 0 18 -52 71 -69 71 -19 0 -170 74 -216 106 -17 11
-37 24 -45 27 -8 4 -40 21 -70 38 -80 46 -160 65 -304 74 -47 3 -142 -23 -211
-57 -28 -14 -83 -38 -124 -53 -97 -37 -186 -92 -282 -175 -149 -128 -204 -205
-229 -315 -7 -33 -18 -66 -23 -72 -5 -7 -29 -13 -52 -13 -32 0 -51 7 -74 27
-33 29 -41 49 -16 39 8 -3 15 -1 15 4 0 5 11 12 25 16 33 8 33 40 1 46 -19 4
-32 -4 -59 -33 -18 -21 -29 -40 -23 -43 6 -2 -4 -10 -21 -17 -18 -8 -33 -17
-33 -21 0 -4 -6 -8 -13 -8 -8 0 -14 12 -14 29 0 21 7 32 24 40 15 7 23 19 23
35 0 21 -6 26 -37 33 -21 4 -44 6 -50 5 -7 -2 -13 2 -13 8 0 16 -48 12 -92
-10 -23 -11 -48 -20 -55 -20 -7 0 -13 -4 -13 -10 0 -5 -11 -10 -23 -10 -13 0
-35 -11 -48 -25 -13 -14 -39 -39 -57 -57 -39 -39 -40 -50 -4 -47 40 3 61 -9
55 -31 -6 -21 -36 -35 -53 -25 -5 3 -10 1 -10 -4 0 -6 -7 -11 -15 -11 -8 0
-15 -4 -15 -9 0 -6 -14 -18 -30 -28 -17 -9 -39 -33 -49 -53 -18 -35 -18 -36 3
-80 12 -25 28 -46 37 -48 19 -4 69 35 69 54 0 29 42 102 90 156 27 30 51 68
54 83 13 70 92 83 116 19 7 -18 4 -38 -11 -76 -23 -60 -22 -101 4 -106 12 -3
21 6 28 27 12 34 35 51 69 51 13 0 27 12 38 30 19 34 60 41 86 14 15 -14 18
-26 20 -79 2 -26 37 -31 77 -11 38 19 44 7 36 -66 -4 -34 -2 -57 5 -66 36 -43
51 -169 23 -192 -8 -7 -26 -9 -43 -5 -16 3 -79 7 -139 9 -109 3 -111 3 -136
-23 -23 -25 -31 -27 -116 -28 -100 -2 -107 2 -102 54 3 37 -11 42 -43 18 -28
-21 -73 -19 -111 5 -39 24 -96 28 -147 9 l-38 -14 0 -222 c0 -142 4 -223 10
-223 6 0 10 -24 10 -54 0 -35 5 -58 15 -66 8 -7 15 -8 15 -3 0 4 13 23 29 40
16 18 37 52 46 77 27 71 50 70 118 -3 42 -46 60 -50 97 -21 21 16 22 20 7 20
-9 0 -22 11 -29 25 -14 32 -1 49 58 69 46 15 67 13 94 -10 18 -15 27 -10 58
34 27 39 23 50 -16 44 -36 -5 -62 19 -62 57 0 53 46 69 74 26 13 -19 25 -25
53 -25 37 0 123 42 123 60 0 22 50 9 67 -16 52 -75 100 -94 151 -58 24 17 46
10 38 -12 -3 -8 -1 -14 3 -14 5 0 7 -9 4 -20 -3 -11 -9 -17 -14 -14 -5 3 -9
-11 -9 -30 0 -27 -4 -36 -17 -37 -31 -3 -58 -6 -70 -7 -7 -1 -21 -22 -32 -47
-17 -39 -24 -45 -49 -45 -35 0 -97 -62 -88 -87 4 -8 9 -26 12 -39 6 -25 19
-31 29 -14 9 15 22 4 29 -26 5 -19 0 -35 -20 -61 -33 -43 -69 -43 -94 2 -9 17
-21 30 -26 30 -5 0 -24 11 -42 23 -35 26 -74 25 -156 -4 -69 -25 -93 -19 -116
26 -16 32 -26 40 -48 40 -15 -1 -38 -7 -52 -15 -33 -19 -124 -19 -143 0 -13
12 -16 9 -21 -29 -4 -24 -13 -52 -21 -62 -12 -15 -14 -69 -15 -276 0 -171 3
-258 10 -258 6 0 13 7 16 15 4 8 21 22 40 31 29 14 34 22 34 50 0 47 34 69 99
61 54 -6 88 7 136 53 17 16 42 32 58 35 25 7 27 5 27 -25 0 -17 -4 -40 -10
-50 -14 -25 5 -38 63 -42 48 -3 49 -3 73 42 28 52 101 118 145 130 20 6 46 5
73 -2 36 -9 49 -8 107 16 79 31 84 32 103 5 17 -25 12 -44 -19 -79 -13 -14
-27 -34 -33 -45 -6 -12 -23 -27 -39 -35 -15 -8 -41 -26 -58 -41 -16 -15 -49
-32 -71 -38 -23 -6 -48 -18 -55 -27 -12 -15 -10 -16 21 -11 72 11 131 27 159
42 17 8 42 15 58 15 20 0 24 3 15 12 -19 19 5 47 48 54 39 6 50 17 30 29 -12
7 -13 55 -2 71 34 52 168 -6 242 -107 22 -29 44 -55 48 -58 58 -41 125 -252
122 -383 0 -20 4 -39 10 -43 13 -8 13 -95 1 -95 -23 0 -41 47 -41 102 0 32 -4
58 -8 58 -4 0 -31 -35 -59 -79 -29 -43 -64 -88 -80 -100 -74 -59 -203 -132
-215 -124 -5 2 -8 0 -8 -6 0 -5 -10 -13 -22 -17 -13 -4 -48 -22 -78 -42 -54
-34 -122 -53 -133 -36 -3 5 -2 29 3 53 7 39 5 47 -17 72 -35 38 -53 76 -53
109 0 15 -9 35 -20 45 -11 10 -20 27 -20 37 0 10 -9 36 -20 57 -15 30 -26 40
-52 44 -18 2 -39 0 -45 -5 -7 -6 -13 -7 -13 -4 0 4 -10 0 -22 -8 -45 -32 -101
-10 -122 47 -11 32 -30 12 -41 -44 -13 -64 -28 -94 -51 -103 -9 -4 -18 -5 -19
-4 -8 12 -35 97 -35 109 0 9 22 57 50 108 27 51 50 99 50 107 0 8 7 25 16 39
15 22 14 24 -10 40 -26 17 -46 13 -46 -9 0 -7 -22 -37 -50 -67 -27 -30 -49
-57 -50 -61 0 -5 -8 -8 -17 -8 -9 0 -14 3 -10 6 17 17 -51 94 -82 94 -6 0 -22
-23 -36 -50 -14 -28 -41 -68 -60 -89 l-35 -38 0 -177 c0 -108 4 -176 10 -176
5 0 17 -11 26 -25 16 -24 15 -27 -10 -65 l-26 -40 0 -605 0 -605 1840 0 1840
0 0 658 0 657 -107 33 c-60 17 -120 35 -136 38 -22 5 -25 9 -16 20 16 20 45
17 78 -7 23 -17 36 -19 62 -13 39 9 76 6 102 -7 16 -9 17 1 17 141 0 164 -1
166 -59 135 -26 -13 -29 -20 -34 -80 -6 -80 -15 -92 -52 -72 -25 13 -32 12
-72 -10 -64 -33 -102 -30 -149 12 -21 19 -45 35 -53 35 -15 0 -53 -47 -66 -81
-5 -13 -13 -15 -43 -8 -88 18 -193 64 -200 88 -3 8 0 11 6 7 17 -10 76 21 100
53 12 17 28 31 34 31 6 0 27 15 48 34 34 31 42 33 83 29 25 -3 59 -1 75 5 25
9 38 6 76 -14 26 -14 51 -22 56 -19 6 4 13 -1 16 -9 8 -21 24 -20 39 1 10 13
6 30 -21 94 -19 42 -34 89 -34 103 0 29 40 73 75 82 14 3 25 10 25 15 0 5 15
9 34 9 25 0 40 -7 54 -25 24 -30 30 -31 48 -7 11 13 13 92 14 370 l0 352 -39
0 c-45 0 -86 28 -95 65 -5 18 -19 30 -47 42 -22 9 -44 25 -48 36 -11 28 7 93
36 137 18 26 24 46 22 80 -3 54 7 80 31 80 26 0 33 -14 70 -130 18 -58 42
-118 52 -135 17 -29 18 -14 18 615 l0 645 -37 13 c-71 25 -90 26 -102 4 -6
-11 -8 -34 -5 -50 5 -23 1 -33 -21 -50 -14 -11 -32 -19 -38 -16 -15 6 -37 52
-37 79 0 11 -7 31 -16 43 -14 20 -23 23 -63 20 l-46 -3 -25 51 c-19 38 -34 55
-62 67 -55 24 -72 57 -73 141 -2 115 -3 116 -96 116 l-79 0 0 -28 c0 -21 -16
-44 -60 -90 -33 -35 -60 -71 -60 -82 0 -18 46 -70 62 -70 14 0 8 -28 -7 -34
-8 -3 -15 -15 -15 -26 0 -11 -3 -20 -7 -20 -12 1 -37 40 -53 80 -7 19 -20 43
-29 53 -23 27 -16 137 11 182 l20 35 -168 0 -167 0 -29 -32 c-15 -17 -28 -35
-28 -40 0 -4 -7 -8 -16 -8 -8 0 -13 4 -10 9 3 4 -3 16 -14 26 -10 9 -16 23
-13 31 4 11 -6 14 -48 14 -41 0 -50 -3 -41 -12z m965 -369 c22 -27 22 -39 -2
-39 -22 0 -34 -35 -20 -61 13 -26 12 -31 -17 -62 -33 -36 -23 -46 41 -48 109
-2 123 -16 103 -102 -8 -37 -7 -44 11 -56 20 -13 29 -55 14 -64 -15 -9 -78 40
-78 59 0 12 -8 20 -22 22 -13 2 -23 7 -23 12 0 5 -20 8 -45 8 -24 0 -48 3 -53
6 -5 3 -23 1 -41 -4 -19 -5 -31 -5 -31 1 0 5 -7 9 -15 9 -20 0 -19 -10 2 -25
13 -10 14 -17 5 -43 -12 -34 3 -57 19 -31 5 8 9 10 9 6 0 -4 9 -3 19 3 43 23
105 -38 67 -66 -12 -9 -27 -9 -49 -3 -43 12 -46 12 -40 -10 3 -10 0 -28 -6
-40 -9 -16 -9 -21 1 -21 9 0 9 -3 1 -11 -24 -24 -62 -1 -84 51 -12 28 -25 50
-30 50 -5 0 -9 8 -9 18 0 11 -9 27 -20 37 -14 13 -17 21 -9 31 7 8 7 14 -1 19
-7 4 -10 20 -8 36 3 16 -1 30 -8 33 -6 2 -11 19 -10 38 3 37 22 40 45 8 15
-22 31 -26 31 -9 0 18 38 47 70 54 18 4 33 18 46 43 11 20 41 59 67 85 27 27
46 52 42 55 -4 4 -12 -1 -19 -11 -17 -23 -32 -22 -50 5 -11 16 -13 25 -5 35
17 19 81 8 102 -18z m-204 2 c12 -8 12 -12 -2 -25 -22 -22 -27 -20 -27 9 0 27
6 30 29 16z m-395 -132 c25 -23 46 -45 46 -50 0 -5 -12 -12 -27 -15 -16 -4
-37 -13 -48 -20 -25 -17 -37 -8 -53 37 -14 41 -2 89 22 89 8 0 35 -19 60 -41z
m915 -121 c38 -39 39 -67 4 -102 -26 -26 -53 -28 -78 -5 -24 23 4 139 34 139
5 0 23 -14 40 -32z m-979 -9 c8 -11 25 -31 37 -44 11 -13 24 -38 28 -55 10
-46 38 -60 106 -53 95 10 169 -31 169 -94 0 -23 5 -33 16 -33 20 0 71 -56 79
-87 4 -19 -7 -36 -61 -92 -36 -38 -72 -79 -80 -90 -14 -20 -13 -22 11 -31 14
-6 35 -10 46 -10 11 0 34 -14 51 -30 26 -26 30 -36 25 -65 -5 -32 -3 -36 41
-63 26 -16 59 -32 73 -35 22 -6 28 -14 31 -44 3 -21 0 -54 -5 -73 -11 -40 -12
-76 -3 -140 11 -74 -25 -116 -78 -92 -11 5 -38 17 -59 26 -21 9 -40 23 -44 32
-9 24 14 63 43 74 43 17 82 54 70 67 -33 32 -86 97 -86 105 0 5 -7 25 -15 44
l-15 36 -31 -26 c-28 -24 -39 -27 -93 -24 -53 3 -62 6 -73 27 -9 20 -9 29 3
45 8 11 14 31 14 44 0 19 -4 23 -20 19 -32 -8 -64 25 -64 66 0 39 22 70 63 90
14 7 32 25 39 40 7 15 21 27 31 27 9 0 26 6 37 14 15 12 17 17 7 27 -10 10
-15 10 -25 -3 -19 -24 -81 -33 -97 -14 -21 25 -9 58 24 69 36 12 55 30 55 52
0 14 -5 16 -27 9 -65 -18 -95 -9 -145 47 -27 29 -48 58 -48 65 0 6 -10 14 -22
18 -31 7 -78 53 -78 74 0 9 9 28 20 42 11 14 20 33 20 43 0 23 12 22 30 -4z
m968 -141 c-6 -18 -28 -21 -28 -4 0 9 7 16 16 16 9 0 14 -5 12 -12z m-1973
-28 c-3 -5 4 -12 17 -14 26 -6 104 -16 130 -17 9 0 22 -7 29 -15 6 -8 21 -14
33 -14 12 0 26 -4 31 -9 6 -5 24 -11 40 -13 17 -2 39 -11 50 -21 11 -10 28
-16 39 -13 28 7 96 -33 88 -52 -3 -10 -1 -13 6 -8 7 4 12 3 12 -3 0 -6 7 -8
16 -4 15 6 52 -33 46 -50 -1 -5 5 -11 15 -13 10 -3 27 -24 38 -47 10 -23 26
-53 34 -66 34 -53 32 -54 -86 -16 -29 9 -57 14 -62 11 -5 -4 -13 -2 -16 4 -8
12 -104 2 -122 -13 -7 -5 -22 -7 -34 -4 -16 4 -25 -2 -37 -24 -10 -16 -20 -29
-24 -29 -5 0 -8 -10 -8 -21 0 -20 -4 -21 -47 -15 -33 4 -43 3 -33 -4 11 -7 5
-10 -24 -10 -29 0 -45 7 -62 25 -13 14 -30 25 -39 25 -9 0 -27 7 -40 16 -20
13 -25 14 -25 3 0 -11 -2 -11 -10 1 -5 8 -10 11 -10 6 0 -5 -6 -3 -13 3 -8 6
-17 8 -21 4 -4 -4 -46 -7 -95 -8 -68 0 -91 -4 -104 -17 -10 -9 -27 -20 -40
-24 -25 -8 -75 -44 -61 -44 5 0 -6 -10 -23 -21 -18 -12 -33 -26 -33 -32 0 -6
-3 -8 -6 -4 -3 3 3 19 15 35 11 16 17 32 13 36 -4 4 0 6 8 4 11 -2 14 4 12 20
-2 12 1 22 5 22 13 0 73 88 73 105 0 14 18 20 45 16 6 -1 2 5 -7 12 -23 18
-24 67 -2 67 14 0 15 7 11 38 -5 30 -3 40 13 50 11 7 20 18 20 26 0 8 16 21
35 30 19 9 34 20 34 24 -3 18 2 35 8 29 3 -4 18 1 32 10 14 10 51 20 81 24 30
3 56 7 58 8 2 0 0 -3 -3 -9z m1731 -94 c19 -19 35 -43 36 -55 0 -12 1 -26 2
-33 1 -6 -12 -13 -28 -15 -43 -6 -72 -23 -56 -33 9 -6 7 -11 -9 -19 -11 -7
-21 -21 -21 -32 0 -11 -13 -34 -30 -52 l-30 -32 -35 19 c-28 16 -37 17 -50 6
-36 -30 -94 40 -64 76 6 8 24 14 40 14 23 0 30 5 35 28 10 37 34 72 50 72 8 0
24 20 36 45 20 40 26 45 56 45 25 0 43 -9 68 -34z m89 -86 c-3 -5 -11 -10 -16
-10 -6 0 -7 5 -4 10 3 6 11 10 16 10 6 0 7 -4 4 -10z m45 -85 c0 -20 -48 -37
-71 -25 -10 6 -19 16 -19 23 0 17 21 43 40 50 16 5 50 -27 50 -48z m-1322
-252 c-10 -2 -26 -2 -35 0 -10 3 -2 5 17 5 19 0 27 -2 18 -5z m155 0 c-7 -2
-19 -2 -25 0 -7 3 -2 5 12 5 14 0 19 -2 13 -5z m-236 -9 c-3 -3 -12 -4 -19 -1
-8 3 -5 6 6 6 11 1 17 -2 13 -5z m300 0 c-3 -3 -12 -4 -19 -1 -8 3 -5 6 6 6
11 1 17 -2 13 -5z m-590 -30 c24 -7 38 -45 20 -56 -14 -9 -59 -10 -80 -2 -13
5 -13 9 1 35 18 30 23 32 59 23z m1457 -26 c-9 -31 -27 -41 -37 -22 -13 22 -1
44 23 44 18 0 20 -4 14 -22z m-1083 -13 l34 -15 -34 2 c-19 2 -36 9 -39 16 -5
15 -1 15 39 -3z m339 5 c0 -5 -2 -10 -4 -10 -3 0 -8 5 -11 10 -3 6 -1 10 4 10
6 0 11 -4 11 -10z m-1450 -39 c-27 -8 -41 -31 -63 -106 -12 -43 -15 -47 -22
-26 -9 30 20 106 48 126 12 8 31 15 42 14 17 -1 16 -2 -5 -8z m1433 -101 c-3
-19 -10 -39 -15 -45 -7 -7 -8 -2 -3 13 6 22 5 23 -15 12 -20 -11 -21 -10 -15
27 3 21 8 54 11 73 l6 34 18 -39 c12 -25 16 -52 13 -75z m-655 72 c16 -21 15
-32 -4 -32 -10 0 -14 6 -11 14 4 10 1 13 -9 9 -16 -6 -18 -19 -5 -27 5 -3 12
-18 15 -32 9 -35 65 -116 75 -109 5 2 15 -3 22 -13 13 -15 12 -16 -3 -3 -11 8
-18 9 -18 3 0 -6 4 -13 9 -17 5 -3 12 -19 16 -35 4 -16 22 -46 41 -67 39 -43
52 -79 37 -102 -5 -9 -41 -28 -79 -42 -38 -14 -82 -31 -98 -37 -22 -10 -37
-10 -63 -1 -19 6 -45 9 -59 6 -13 -2 -29 2 -36 10 -6 8 -17 12 -25 9 -7 -3
-13 -1 -13 4 0 6 5 10 12 10 6 0 8 3 5 6 -4 4 -20 1 -37 -6 -28 -11 -33 -11
-54 9 -31 29 -23 63 23 98 48 36 51 41 39 75 -12 33 4 84 22 73 6 -4 7 -12 4
-18 -5 -8 -4 -9 3 -2 6 6 16 33 23 60 8 28 22 69 32 93 13 32 15 49 8 62 -9
17 -6 19 27 22 52 5 86 -1 101 -20z m568 -4 c10 -42 9 -40 18 -60 5 -11 1 -32
-11 -55 -17 -35 -23 -39 -88 -55 -46 -11 -116 -17 -202 -17 -127 -1 -132 0
-162 25 -17 14 -31 31 -31 37 0 6 -8 19 -17 30 -18 19 -17 19 5 6 12 -8 22
-19 22 -26 0 -7 5 -13 11 -13 5 0 7 -5 3 -11 -4 -7 -1 -10 7 -7 8 3 13 11 12
17 -4 16 22 14 37 -4 7 -8 21 -15 32 -15 38 0 160 32 149 39 -7 5 6 13 31 21
24 7 37 15 29 18 -7 2 11 13 40 23 30 11 60 17 66 14 9 -3 13 7 13 30 0 45 26
47 36 3z m155 -15 c13 -16 12 -17 -3 -4 -10 7 -18 15 -18 17 0 8 8 3 21 -13z
m406 -5 c24 -13 45 -29 48 -36 8 -22 -16 -91 -34 -96 -60 -16 -68 -15 -91 9
-13 14 -30 25 -37 25 -20 0 -43 25 -43 48 0 22 65 72 95 72 11 0 39 -10 62
-22z m-1870 -20 c-3 -7 -5 -2 -5 12 0 14 2 19 5 13 2 -7 2 -19 0 -25z m87 -3
c4 -20 4 -41 -1 -47 -9 -15 -12 -48 -4 -44 3 2 12 -3 20 -11 12 -13 11 -14
-10 -8 -22 7 -22 7 -6 -9 10 -10 22 -14 29 -10 9 5 8 2 -1 -10 -13 -16 -12
-17 15 -10 16 4 32 12 36 18 11 17 83 13 102 -7 13 -13 33 -17 82 -16 87 2 92
-8 8 -16 -79 -9 -258 2 -262 15 -2 5 -9 7 -17 4 -15 -6 -55 29 -55 49 0 6 6 3
12 -8 12 -19 12 -19 19 5 4 14 7 51 8 83 1 64 15 76 25 22z m516 26 c0 -6 -4
-13 -10 -16 -5 -3 -10 1 -10 9 0 9 5 16 10 16 6 0 10 -4 10 -9z m-1454 -47
c49 -20 53 -27 47 -78 -5 -42 -45 -88 -88 -102 -26 -8 -65 -44 -65 -60 0 -12
-30 -24 -63 -24 -23 0 -40 45 -27 70 5 10 19 22 30 25 27 9 80 88 80 119 0 30
20 66 36 66 6 0 29 -7 50 -16z m3125 -15 c6 -11 13 -43 16 -71 5 -45 3 -53
-22 -75 -19 -18 -25 -32 -21 -48 7 -29 -24 -59 -53 -50 -20 6 -38 41 -27 52 3
4 1 11 -4 18 -5 6 -12 27 -15 46 -5 30 0 39 34 74 40 40 74 73 78 74 1 1 7 -8
14 -20z m-647 -15 c9 -4 21 -14 26 -24 8 -15 6 -17 -9 -13 -11 3 -40 -10 -72
-31 -55 -38 -72 -41 -77 -12 -4 21 19 44 68 68 41 20 43 20 64 12z m-754 -95
c49 -26 364 -9 424 23 13 7 16 7 11 -2 -4 -7 -1 -10 11 -8 14 2 20 -4 22 -22
6 -40 19 -45 36 -11 22 42 33 39 34 -11 1 -24 3 -52 6 -63 2 -11 5 -28 5 -38
1 -10 6 -15 11 -12 6 3 10 1 10 -4 0 -6 -6 -11 -12 -11 -10 0 -14 -37 -16
-146 -3 -169 -13 -198 -67 -189 -24 4 -26 3 -12 -6 21 -12 22 -29 3 -29 -8 0
-16 -8 -19 -17 -4 -17 -4 -17 -11 -1 -5 11 0 34 13 60 38 80 51 198 21 198 -5
0 -10 12 -12 28 -3 24 -7 27 -40 26 -26 0 -43 -8 -56 -24 -19 -24 -19 -24 -26
-3 -7 23 -52 37 -60 19 -3 -6 -8 -1 -11 12 -4 12 -14 22 -21 22 -8 0 -14 4
-14 9 0 5 -9 11 -20 14 -11 3 -23 13 -26 24 -15 41 -55 83 -80 83 -27 0 -75
22 -113 51 -13 11 -18 19 -11 19 7 0 0 10 -16 23 -16 12 -32 21 -36 20 -4 -2
-4 5 -1 14 5 14 9 13 27 -9 12 -14 32 -31 46 -39z m-863 19 c-3 -8 -6 -5 -6 6
-1 11 2 17 5 13 3 -3 4 -12 1 -19z m1767 -20 c-5 -7 -7 -21 -6 -30 2 -13 -3
-18 -22 -18 -13 0 -26 -6 -29 -12 -3 -10 -8 -10 -21 1 -16 13 -16 15 -1 24 9
5 19 6 22 3 3 -3 17 8 31 24 25 29 42 34 26 8z m-140 -39 c-3 -48 -30 -103
-72 -147 -32 -35 -40 -74 -10 -56 18 12 69 5 96 -12 28 -18 38 -13 45 23 7 32
12 39 49 71 18 17 45 26 87 31 68 8 85 -1 79 -41 -2 -18 -11 -24 -37 -28 -35
-5 -42 -14 -57 -65 -7 -21 -22 -36 -53 -52 -24 -12 -54 -31 -65 -42 -19 -18
-24 -19 -46 -6 -49 28 -75 37 -110 39 l-35 1 -6 -58 c-7 -67 -11 -72 -37 -58
-28 15 -30 31 -24 199 2 39 5 44 38 58 36 15 36 16 30 61 -6 47 4 73 30 73 10
0 14 -13 14 -39 0 -31 3 -39 17 -37 10 2 20 11 23 22 3 10 14 36 23 56 9 21
17 42 17 48 0 5 2 10 4 10 2 0 2 -23 0 -51z m-1224 1 c0 -5 -6 -10 -12 -11 -7
0 -4 -4 7 -9 18 -8 18 -9 2 -9 -11 -1 -15 -5 -11 -13 5 -8 0 -9 -15 -5 -17 4
-21 2 -17 -8 3 -9 0 -12 -10 -8 -8 3 -21 0 -28 -6 -9 -8 -32 -10 -63 -6 -28 4
-60 2 -78 -5 l-30 -12 23 -18 c23 -19 78 -20 91 -3 9 13 59 15 66 3 10 -16
-11 -36 -61 -60 -52 -26 -79 -23 -78 8 1 22 -20 30 -31 12 -3 -5 -16 -10 -28
-10 -20 -1 -20 -2 -4 -11 25 -14 21 -29 -8 -29 -16 0 -25 -6 -25 -15 0 -8 -4
-15 -10 -15 -5 0 -10 -7 -10 -15 0 -9 -6 -18 -14 -21 -8 -3 -14 -19 -14 -37 0
-18 -1 -63 -1 -101 0 -38 3 -74 8 -80 4 -6 11 -24 15 -41 11 -48 -12 -9 -31
55 -12 41 -18 50 -22 35 -3 -11 -12 -29 -18 -40 -11 -17 -14 -18 -23 -5 -6 8
-8 28 -5 43 4 24 -6 129 -18 178 -2 8 1 4 7 -8 5 -13 14 -23 19 -23 4 0 6 -4
2 -9 -3 -5 -1 -12 5 -16 5 -3 7 -26 4 -53 -6 -45 -6 -46 11 -30 18 17 18 19
-11 273 -2 17 -1 48 3 70 5 38 6 39 16 15 l10 -25 9 33 c5 17 13 32 20 32 7 0
6 -5 -2 -15 -7 -8 -9 -15 -4 -15 5 0 26 -4 46 -9 21 -5 36 -5 33 -1 -3 5 0 10
7 13 7 2 0 2 -17 0 l-30 -3 25 12 c14 6 84 15 155 18 72 4 133 7 138 8 4 1 7
-2 7 -8z m1064 -131 c-13 -21 -24 -6 -24 34 l1 42 14 -34 c8 -18 12 -37 9 -42z
m926 46 c21 -23 22 -26 7 -48 -9 -14 -24 -27 -34 -29 -52 -14 -93 44 -58 82
24 27 57 25 85 -5z m-2449 -46 c-9 -23 -10 -22 -10 11 -1 23 2 31 9 24 7 -7 7
-19 1 -35z m-104 -59 c32 -64 42 -102 31 -122 -14 -28 -39 -21 -85 24 -36 35
-49 42 -78 40 -28 -2 -35 1 -35 15 0 27 15 44 31 38 9 -3 24 6 38 25 34 46 69
39 98 -20z m1141 -38 c2 -14 -3 -25 -15 -29 -16 -6 -16 -8 4 -13 17 -4 20 -9
13 -20 -7 -11 -12 -12 -21 -3 -9 9 -20 9 -48 -2 -33 -14 -34 -13 -16 0 17 14
18 17 5 25 -14 9 -7 14 13 11 4 0 7 4 7 9 0 6 -4 10 -10 10 -20 0 -9 16 18 27
36 14 46 11 50 -15z m-11 -120 c24 -32 14 -37 -74 -40 -49 -1 -100 -5 -115 -8
-16 -3 -28 -3 -28 0 0 10 65 35 115 45 28 5 42 9 33 10 -10 0 -18 5 -18 11 0
16 73 0 87 -18z m-1925 -52 c10 -15 24 -20 55 -20 50 0 73 -8 73 -25 0 -16
-56 -65 -74 -65 -7 0 -23 -11 -35 -24 -42 -45 -109 -35 -80 12 9 14 9 30 2 59
-16 63 29 112 59 63z m2627 -86 c14 -32 14 -59 0 -99 -15 -40 -60 -47 -77 -12
-20 43 -21 58 -6 97 22 55 61 61 83 14z m-816 4 c4 -10 8 -10 15 1 15 21 42 5
42 -24 l0 -25 35 17 c19 9 35 21 35 25 0 5 4 7 9 3 5 -3 12 -1 16 5 3 5 10 10
15 10 15 0 76 -66 72 -78 -2 -6 6 -16 17 -22 13 -6 21 -21 21 -36 0 -18 4 -25
14 -21 16 6 10 -33 -8 -46 -8 -6 -7 -10 2 -14 14 -6 16 -43 2 -43 -5 0 -10 -4
-10 -10 0 -12 -90 -135 -90 -124 0 5 -6 2 -13 -7 -7 -8 -28 -24 -47 -35 -19
-10 -40 -25 -46 -33 -6 -8 -16 -11 -21 -8 -6 4 -14 0 -17 -9 -5 -14 -8 -14
-22 1 -15 14 -18 14 -33 1 -13 -12 -29 -13 -83 -6 -36 4 -72 12 -80 16 -12 8
-98 15 -98 8 0 -1 7 -10 16 -18 8 -9 12 -21 8 -27 -5 -8 -11 -6 -21 7 -8 10
-17 20 -21 20 -25 5 -52 17 -52 24 0 4 -8 10 -18 12 -32 9 -51 118 -20 118 5
0 17 -9 26 -19 13 -14 35 -20 92 -24 41 -3 69 -3 63 0 -18 7 -16 23 2 23 8 0
15 5 15 11 0 8 6 7 17 -2 13 -11 17 -11 20 -1 5 14 43 17 43 2 0 -5 5 -10 12
-10 9 0 9 3 0 12 -19 19 -15 23 32 25 30 1 51 8 68 25 29 27 41 55 28 63 -6 4
-7 17 -4 31 4 14 2 24 -5 24 -19 0 -12 26 14 50 43 40 28 44 -20 6 -60 -49
-106 -67 -175 -67 -67 -1 -130 25 -111 44 8 8 14 8 19 2 9 -13 42 -16 42 -3 0
5 5 6 10 3 6 -3 10 -2 10 3 0 6 10 10 23 10 12 0 38 5 57 10 l35 10 -42 1
c-27 1 -43 6 -43 14 0 9 -2 9 -9 -1 -5 -8 -23 -12 -47 -10 -33 2 -39 7 -39 26
0 12 2 22 5 21 3 0 17 4 31 10 19 7 30 6 38 -2 9 -9 14 -9 19 0 13 21 63 35
78 22 10 -8 17 -7 29 5 20 19 41 21 48 4z m-268 -58 c0 -22 -39 -19 -43 3 -3
15 1 18 20 15 12 -2 23 -10 23 -18z m1355 -84 c0 -28 -27 -39 -60 -26 -48 20
-36 38 28 39 21 1 32 -4 32 -13z m-552 -180 c32 7 52 -11 54 -48 2 -28 17 -50
29 -42 5 3 6 -2 2 -11 -3 -10 -1 -20 6 -24 6 -4 -7 -8 -30 -9 -23 -1 -45 -4
-48 -7 -2 -3 14 -52 37 -109 44 -108 49 -134 32 -167 -12 -22 -197 -145 -334
-223 -177 -101 -245 -119 -491 -136 -82 -6 -164 -16 -181 -22 -27 -9 -35 -9
-48 5 -16 16 -22 37 -10 37 4 0 13 -8 21 -17 8 -10 12 -12 8 -5 -4 7 1 12 12
12 77 2 146 10 157 19 8 7 35 12 60 13 25 0 46 4 46 9 0 5 28 7 63 4 50 -3 54
-2 22 4 -31 6 -34 8 -13 10 15 0 30 6 33 11 4 7 13 6 27 -1 16 -9 19 -8 13 1
-6 10 -1 11 20 8 38 -8 86 10 83 30 -2 9 8 22 22 29 14 7 22 13 17 13 -4 0 11
18 33 39 22 22 36 41 30 43 -5 2 -7 19 -3 41 4 27 11 37 24 37 12 0 16 5 13
15 -5 11 1 15 19 15 14 0 29 5 32 10 3 6 1 10 -5 10 -6 0 -10 10 -8 23 2 12 9
21 15 20 7 -2 15 7 19 20 4 12 14 27 23 34 9 7 13 13 8 13 -4 0 11 23 33 51
30 39 39 56 34 75 -5 18 -2 24 9 24 11 0 15 9 15 28 -1 15 4 37 11 49 6 12 11
34 11 50 0 15 5 46 11 68 l12 40 14 -47 c13 -44 15 -47 41 -42z m179 -123 c2
-6 -1 -14 -6 -18 -6 -3 -11 -1 -11 6 0 9 -3 9 -14 -1 -12 -9 -15 -8 -13 7 1
21 38 25 44 6z m45 -30 c18 -16 18 -16 12 0 -6 15 -3 16 22 7 16 -6 45 -27 65
-46 27 -26 36 -43 37 -73 2 -22 -2 -42 -7 -46 -6 -3 -7 -13 -4 -23 6 -15 5
-15 -13 -3 -29 21 -154 155 -154 165 0 4 8 5 18 1 14 -5 15 -4 5 6 -28 28 -10
39 19 12z m-2482 -113 c0 -5 -5 -10 -11 -10 -5 0 -7 5 -4 10 3 6 8 10 11 10 2
0 4 -4 4 -10z m20 -40 c0 -5 -2 -10 -4 -10 -3 0 -8 5 -11 10 -3 6 -1 10 4 10
6 0 11 -4 11 -10z m411 -170 c18 0 9 -47 -13 -67 -18 -16 -28 -19 -45 -12 -49
18 -14 99 35 83 8 -2 18 -4 23 -4z m-7 -138 c-8 -5 -7 -32 2 -96 7 -50 16 -96
18 -103 6 -16 -32 -43 -61 -43 -12 0 -56 -16 -99 -35 -83 -38 -94 -41 -111
-24 -14 14 1 70 22 82 11 6 13 13 6 24 -9 16 -1 37 25 73 6 8 15 29 18 45 12
48 44 75 88 75 21 0 38 -4 38 -10 0 -5 5 -10 10 -10 6 0 10 7 10 15 0 9 9 15
23 15 12 0 17 -3 11 -8z m-614 -506 c0 -3 -4 -8 -10 -11 -5 -3 -10 -1 -10 4 0
6 5 11 10 11 6 0 10 -2 10 -4z"/>
<path d="M2811 3291 c-8 -6 -11 -16 -7 -27 5 -12 10 -14 17 -7 16 16 7 45 -10
34z"/>
<path d="M1865 3490 c3 -5 11 -10 16 -10 6 0 7 5 4 10 -3 6 -11 10 -16 10 -6
0 -7 -4 -4 -10z"/>
<path d="M2372 2933 c-17 -30 -15 -37 4 -19 8 9 14 22 11 29 -2 7 -8 4 -15
-10z"/>
<path d="M2440 2755 c0 -8 5 -15 10 -15 6 0 10 7 10 15 0 8 -4 15 -10 15 -5 0
-10 -7 -10 -15z"/>
<path d="M1123 2740 c-1 -16 1 -17 12 -7 7 6 11 15 8 20 -8 13 -19 7 -20 -13z"/>
<path d="M1280 2630 c0 -5 4 -10 9 -10 6 0 13 5 16 10 3 6 -1 10 -9 10 -9 0
-16 -4 -16 -10z"/>
<path d="M1950 2270 c0 -5 5 -10 11 -10 5 0 7 5 4 10 -3 6 -8 10 -11 10 -2 0
-4 -4 -4 -10z"/>
<path d="M1880 2244 c0 -8 5 -12 10 -9 6 3 10 10 10 16 0 5 -4 9 -10 9 -5 0
-10 -7 -10 -16z"/>
<path d="M1761 1954 c0 -11 3 -14 6 -6 3 7 2 16 -1 19 -3 4 -6 -2 -5 -13z"/>
<path d="M3215 4483 c21 -51 26 -85 15 -98 -21 -25 28 -95 66 -95 13 0 35 -11
50 -25 31 -28 37 -30 64 -13 15 10 26 9 55 -5 38 -18 59 -14 85 17 9 11 30 16
71 16 l59 0 0 110 0 110 -69 0 c-40 0 -71 -4 -73 -11 -2 -7 -12 -7 -31 0 -16
6 -89 11 -164 11 -125 0 -135 -1 -128 -17z"/>
<path d="M340 4023 c-25 -10 -52 -41 -45 -52 9 -16 51 -13 65 4 7 8 19 15 26
15 8 0 14 7 14 15 0 8 -4 15 -9 15 -5 0 -15 2 -23 4 -7 3 -20 2 -28 -1z"/>
<path d="M43 3910 c-12 -11 -27 -20 -33 -20 -6 0 -10 -71 -10 -210 0 -115 3
-210 6 -210 4 0 18 12 33 26 14 15 55 45 91 68 51 33 66 48 73 75 5 20 5 37
-1 40 -21 14 -29 48 -25 101 5 50 3 59 -15 72 -12 8 -26 26 -31 41 -6 15 -17
27 -25 27 -8 0 -21 2 -28 5 -8 3 -23 -4 -35 -15z"/>
<path d="M649 2780 l-24 -19 31 -1 c31 0 60 21 47 33 -11 12 -30 8 -54 -13z"/>
<path d="M594 1892 c-23 -16 -44 -58 -43 -87 0 -16 3 -23 6 -15 4 8 21 33 40
56 18 23 33 44 33 48 0 8 -22 7 -36 -2z"/>
<path d="M974 1606 c-7 -31 2 -47 24 -40 10 4 13 3 6 -3 -15 -11 -26 -73 -13
-73 6 0 4 -6 -4 -14 -8 -9 -12 -26 -10 -40 3 -16 1 -26 -6 -26 -16 0 -14 -19
4 -37 18 -18 29 -11 31 20 2 40 15 66 35 72 23 8 22 51 -2 66 -12 8 -12 9 0 9
12 0 12 2 -1 13 -9 6 -18 25 -20 42 -4 39 -35 47 -44 11z"/>
<path d="M840 1481 c0 -18 12 -41 22 -41 16 0 40 29 33 40 -8 13 -55 13 -55 1z"/>
</g>
</svg>
