<?xml version="1.0" standalone="no"?>
<!DOCTYPE svg PUBLIC "-//W3C//DTD SVG 20010904//EN"
 "http://www.w3.org/TR/2001/REC-SVG-20010904/DTD/svg10.dtd">
<svg version="1.0" xmlns="http://www.w3.org/2000/svg"
 width="625.000000pt" height="401.000000pt" viewBox="0 0 625.000000 401.000000"
 preserveAspectRatio="xMidYMid meet">

<g transform="translate(0.000000,401.000000) scale(0.100000,-0.100000)"
fill="#000000" stroke="none">
<path d="M1999 3881 l-43 -30 -23 25 c-22 24 -27 25 -116 21 -111 -6 -93 -6
-204 0 -139 7 -133 20 -133 -277 0 -314 -22 -287 237 -286 188 1 192 2 217 25
25 23 27 24 45 7 28 -25 88 -45 138 -46 47 0 53 -7 117 -122 l37 -67 -30 -16
c-39 -20 -39 -32 -1 -40 l30 -7 -20 -25 c-29 -37 -65 -161 -85 -288 -10 -68
-26 -128 -41 -157 -16 -31 -22 -56 -18 -75 3 -15 -4 -71 -16 -123 -14 -62 -19
-110 -15 -137 6 -41 7 -42 53 -49 26 -4 95 -17 154 -29 l108 -21 5 -144 c3
-79 10 -162 15 -183 10 -47 42 -83 79 -90 16 -3 135 0 265 7 252 15 277 20
296 70 5 13 6 89 3 169 l-6 144 34 5 c19 3 36 4 38 2 2 -2 8 -65 13 -141 11
-155 17 -175 53 -199 29 -19 133 -20 382 -4 221 14 229 22 219 222 -4 73 -11
151 -15 174 l-8 41 121 39 c67 21 123 39 124 40 2 2 1 11 -2 22 -6 19 -13 18
-143 -24 -108 -34 -140 -41 -156 -32 -21 11 -132 7 -402 -12 -71 -6 -258 -17
-415 -25 -280 -15 -442 -29 -459 -39 -4 -3 -55 4 -112 15 -57 11 -113 22 -124
24 -20 4 -21 12 -22 214 -1 179 0 209 13 204 8 -3 14 0 14 6 0 6 24 23 53 38
49 26 61 27 204 30 154 3 231 17 225 42 -1 7 2 10 7 7 5 -3 35 8 67 24 l59 30
95 -15 c266 -42 239 -42 319 -5 63 29 77 32 133 27 35 -3 99 -17 143 -32 103
-34 224 -56 246 -44 9 4 26 25 38 45 l22 37 49 -48 c27 -26 53 -60 59 -74 10
-26 25 -129 37 -256 4 -38 8 -77 10 -85 1 -8 3 -18 3 -22 1 -4 8 -5 17 -1 10
4 23 -2 33 -15 14 -19 18 -20 41 -7 14 8 19 14 12 15 -7 0 -11 4 -7 9 12 20
-59 290 -94 361 -22 44 -29 74 -33 145 -6 89 -20 134 -63 200 -11 17 -28 36
-37 43 -25 19 -22 39 7 46 14 4 25 13 25 21 0 14 -10 19 -66 30 -31 6 -31 6
-23 51 10 50 21 75 44 94 13 11 19 10 36 -6 16 -14 34 -18 73 -17 94 4 111 3
165 -3 45 -5 58 -3 82 15 35 26 33 26 68 0 20 -14 43 -21 73 -21 23 0 74 1
111 2 59 0 72 4 93 25 24 24 24 25 23 222 -1 164 -5 205 -19 239 -24 57 -74
86 -160 92 -62 4 -74 2 -115 -23 l-47 -27 -19 21 c-23 24 -100 29 -144 9 -19
-9 -28 -9 -37 0 -7 7 -38 12 -70 12 -46 0 -61 -4 -78 -22 -17 -19 -23 -20 -38
-10 -59 43 -166 56 -221 27 -66 -33 -101 -104 -101 -202 0 -29 -4 -53 -10 -53
-6 0 -10 40 -10 101 0 95 -9 135 -34 151 -6 4 -38 8 -71 8 -67 0 -76 -4 -95
-39 l-12 -24 -25 32 -24 31 -99 0 c-95 0 -100 -1 -116 -25 -9 -13 -22 -70 -29
-126 -7 -56 -17 -105 -22 -110 -16 -15 -73 5 -86 31 -7 13 -23 30 -36 36 -23
12 -23 12 -2 19 36 11 54 50 48 102 -8 73 -13 74 -232 69 -104 -2 -197 -4
-205 -5 -8 0 -46 2 -84 5 -45 4 -77 2 -92 -6 -19 -10 -30 -10 -64 4 -22 9 -67
16 -99 16 -48 0 -66 -5 -102 -29z m190 -25 c50 -27 63 -59 69 -176 2 -59 1
-137 -3 -175 -6 -56 -12 -73 -38 -101 -41 -44 -105 -55 -172 -29 -70 26 -79
52 -83 225 -4 171 6 213 57 247 40 27 126 31 170 9z m1580 0 c60 -31 66 -54
66 -238 0 -153 -2 -169 -21 -195 -46 -63 -128 -79 -204 -40 -59 29 -68 62 -69
237 0 156 10 195 58 227 40 27 126 31 170 9z m703 -23 c27 -27 32 -41 36 -93
l4 -60 -66 0 -66 0 0 56 c0 47 -3 55 -17 52 -16 -3 -18 -20 -21 -162 -2 -114
1 -162 10 -173 10 -13 14 -13 25 3 19 26 17 104 -3 104 -11 0 -14 9 -12 37 l3
36 73 1 72 1 0 -132 0 -133 -39 0 c-26 0 -41 5 -45 16 -5 13 -9 13 -32 -5 -31
-25 -62 -26 -109 -7 -59 25 -68 57 -67 242 1 167 7 198 38 225 29 25 44 29
117 26 61 -2 70 -6 99 -34z m-2772 -78 c7 -58 15 -104 17 -102 2 3 9 49 16
103 l12 99 83 3 82 3 0 -246 0 -245 -55 0 -55 0 -1 143 -1 142 -20 -142 -21
-143 -38 0 c-43 0 -37 -15 -66 175 l-18 120 -3 -147 -3 -148 -54 0 -55 0 0
245 0 245 84 0 83 0 13 -105z m711 80 c1 -14 2 -28 3 -32 1 -5 6 -44 10 -88
14 -147 25 -187 27 -94 0 30 2 61 3 69 2 8 7 50 11 93 l7 77 64 0 c56 0 64 -2
64 -18 0 -19 -44 -365 -56 -434 l-6 -38 -94 0 c-89 0 -94 1 -99 23 -7 33 -65
434 -65 452 0 12 13 15 65 15 62 0 65 -1 66 -25z m429 -23 l0 -48 -42 1 -43 0
0 -45 0 -45 41 -5 c40 -5 41 -5 40 -45 -1 -39 -2 -40 -41 -45 l-40 -5 0 -50 0
-50 48 -3 47 -3 0 -50 0 -49 -110 0 -110 0 0 245 0 245 105 0 105 0 0 -48z
m409 -184 c18 -128 35 -239 37 -245 2 -10 -14 -13 -61 -13 -58 0 -65 2 -66 20
-1 11 -3 25 -4 30 -1 6 -3 17 -4 26 -1 10 -9 14 -23 12 -19 -2 -24 -10 -26
-45 l-3 -43 -65 0 c-46 0 -64 4 -64 13 0 15 46 380 56 440 l6 37 92 0 92 0 33
-232z m191 37 l0 -195 39 0 38 0 -1 -47 -1 -48 -103 -3 -102 -3 0 246 0 245
65 0 65 0 0 -195z m585 90 l33 -100 1 103 1 102 55 0 55 0 0 -245 0 -245 -58
0 -57 0 -32 108 -32 107 0 -107 -1 -108 -55 0 -55 0 0 245 0 246 56 -3 56 -3
33 -100z m-1086 -272 c-14 -60 -11 -113 8 -131 19 -20 150 -27 171 -10 17 15
28 2 13 -16 -9 -11 -10 -20 -2 -35 16 -30 13 -35 -11 -19 -19 12 -27 12 -48 1
-14 -7 -44 -12 -67 -11 -23 1 -48 -4 -57 -11 -15 -12 -20 -8 -17 11 0 4 -12
14 -29 23 -40 21 -53 45 -33 67 21 23 32 79 21 108 -7 20 -5 28 14 42 37 28
47 23 37 -19z"/>
<path d="M2097 3784 c-10 -11 -8 -332 2 -338 25 -16 31 27 29 180 -3 147 -9
180 -31 158z"/>
<path d="M3677 3784 c-10 -11 -8 -332 2 -338 25 -16 31 27 29 180 -3 147 -9
180 -31 158z"/>
<path d="M3117 3671 c-11 -104 -10 -121 12 -121 20 0 20 2 2 135 l-7 50 -7
-64z"/>
<path d="M3120 2674 c-47 -7 -121 -13 -165 -12 -57 0 -90 -4 -110 -15 -20 -11
-24 -16 -13 -17 9 0 20 5 23 10 3 6 44 10 91 10 100 0 275 19 289 31 11 11 -7
10 -115 -7z"/>
<path d="M3410 2598 l-35 -30 -125 6 c-69 4 -129 6 -135 7 -5 0 -131 -5 -279
-10 -182 -7 -273 -14 -280 -22 -8 -9 2 -10 44 -4 30 4 130 8 223 10 92 2 200
6 240 10 40 4 92 2 116 -4 25 -5 82 -7 126 -4 70 5 87 10 116 34 19 15 32 30
29 32 -3 3 -21 -8 -40 -25z"/>
<path d="M3305 2421 c-38 -11 -73 -20 -77 -20 -5 -1 -8 -5 -8 -9 0 -4 42 3 93
16 112 29 196 25 288 -12 81 -33 90 -25 13 11 -79 36 -206 42 -309 14z"/>
<path d="M2640 2378 c-59 -21 -146 -75 -137 -85 2 -2 27 12 56 31 34 23 77 40
128 52 78 17 96 17 268 -11 20 -3 15 1 -15 11 -25 9 -88 18 -140 20 -81 4
-105 1 -160 -18z"/>
<path d="M4110 2229 c-24 -8 -24 -8 5 -6 26 2 30 -2 33 -25 4 -30 -31 -181
-54 -235 -7 -18 -9 -33 -5 -33 14 0 63 173 68 243 6 72 4 74 -47 56z"/>
<path d="M2155 2170 c3 -5 8 -10 11 -10 2 0 4 5 4 10 0 6 -5 10 -11 10 -5 0
-7 -4 -4 -10z"/>
<path d="M2000 2094 c-8 -21 -5 -37 14 -80 28 -61 37 -68 31 -24 -2 17 1 28 6
25 5 -3 7 -22 4 -41 -3 -27 2 -45 22 -75 32 -48 43 -49 43 -4 0 19 -5 35 -11
35 -6 0 -8 7 -5 16 3 9 1 35 -5 58 -6 22 -11 53 -11 68 0 14 -6 29 -14 32 -8
3 -14 1 -14 -3 0 -5 -8 -7 -17 -5 -14 4 -18 -1 -19 -20 -1 -15 2 -26 6 -26 5
0 6 -10 2 -22 -5 -22 -5 -22 -14 2 -5 13 -6 39 -3 57 6 40 -2 43 -15 7z m57
-51 c-3 -10 -5 -4 -5 12 0 17 2 24 5 18 2 -7 2 -21 0 -30z m20 -40 c-3 -10 -5
-4 -5 12 0 17 2 24 5 18 2 -7 2 -21 0 -30z m19 -49 c-3 -9 -6 -18 -6 -20 0 -2
-7 -4 -15 -4 -13 0 -13 3 -3 20 15 24 33 27 24 4z m14 -44 c0 -5 -4 -10 -10
-10 -5 0 -10 5 -10 10 0 6 5 10 10 10 6 0 10 -4 10 -10z"/>
<path d="M3097 1559 c-84 -19 -131 -62 -120 -108 10 -46 20 -51 62 -36 52 18
76 20 142 11 70 -9 106 4 123 45 14 34 11 62 -8 78 -17 14 -152 20 -199 10z
m98 -19 c32 -12 24 -30 -15 -30 -30 0 -45 13 -35 30 8 13 17 13 50 0z m-75
-14 c0 -7 -9 -16 -20 -19 -22 -6 -23 -5 -14 17 8 20 34 21 34 2z m170 4 c0 -5
-6 -10 -14 -10 -8 0 -21 -3 -30 -6 -11 -4 -16 -1 -16 10 0 11 9 16 30 16 17 0
30 -4 30 -10z"/>
<path d="M3250 1399 c0 -8 11 -31 25 -52 l26 -37 -43 -47 c-40 -44 -41 -45
-10 -24 18 13 40 34 49 48 15 23 15 27 -7 66 -29 52 -40 66 -40 46z"/>
<path d="M3857 1354 c-46 -37 -79 -53 -165 -79 -59 -18 -161 -52 -227 -76
-119 -43 -121 -43 -255 -43 -93 0 -176 8 -265 23 -71 12 -170 25 -220 28 -74
5 -96 10 -123 30 -48 36 -142 72 -142 55 0 -5 19 -14 43 -20 24 -6 62 -25 85
-42 33 -23 52 -30 89 -30 27 0 120 -11 208 -25 371 -59 377 -58 695 48 204 67
250 89 325 152 53 44 12 26 -48 -21z"/>
<path d="M3190 1210 c-9 -6 -10 -10 -3 -10 6 0 15 5 18 10 8 12 4 12 -15 0z"/>
<path d="M2232 1140 c-78 -69 -130 -137 -201 -262 -31 -54 -35 -57 -79 -63
-26 -3 -56 -10 -68 -15 -11 -4 -28 -4 -37 1 -24 14 -155 13 -172 -1 -9 -8 -19
-8 -32 -1 -12 6 -155 10 -364 10 -331 1 -347 0 -368 -18 l-23 -20 -47 24 c-80
43 -207 30 -268 -27 -13 -12 -24 -20 -26 -17 -2 2 -11 16 -20 32 -16 25 -22
27 -84 27 -47 0 -72 -5 -84 -16 -16 -15 -20 -15 -41 0 -23 17 -133 23 -154 8
-28 -19 -34 -56 -34 -221 l0 -171 -65 0 -65 0 0 -205 0 -205 3125 0 3125 0 0
205 0 205 -81 0 c-66 0 -79 3 -71 13 17 21 25 89 13 120 -7 17 -24 34 -46 43
-38 16 -39 34 -1 34 38 0 60 34 60 95 0 88 -11 95 -165 95 l-129 0 -17 -27
c-9 -16 -18 -30 -20 -32 -2 -3 -13 5 -26 16 -45 40 -70 43 -357 39 -151 -2
-282 -4 -290 -4 -19 1 -190 5 -288 8 -64 2 -77 0 -95 -19 -21 -20 -22 -33 -25
-201 l-3 -180 -26 0 c-14 0 -38 -11 -55 -25 -38 -32 -108 -36 -108 -6 0 12 11
21 32 27 42 12 60 47 54 104 -4 48 -32 80 -68 80 -29 0 -16 24 14 28 43 5 61
34 61 99 0 47 -4 60 -24 76 -21 16 -39 18 -173 16 -161 -3 -189 3 -201 43 -23
78 -109 228 -164 287 l-59 64 -54 -21 c-73 -30 -178 -50 -316 -62 -323 -27
-778 -52 -872 -47 -166 8 -312 49 -397 113 -17 13 -33 24 -36 24 -2 0 -40 -32
-85 -70z m1748 -305 c0 -68 -3 -73 -34 -50 -17 13 -17 16 -2 45 14 29 14 31
-1 26 -8 -4 -23 -1 -32 6 -13 10 -14 10 -3 -2 18 -20 16 -61 -3 -54 -8 4 -15
14 -15 23 0 22 -19 41 -42 41 -11 0 -18 -7 -18 -20 0 -16 -6 -19 -30 -16 -17
2 -33 0 -36 -5 -3 -5 -12 -9 -21 -9 -11 0 -14 6 -10 21 3 13 0 22 -10 26 -17
7 -34 -14 -26 -34 3 -7 -9 -26 -27 -43 -30 -28 -37 -30 -112 -30 -64 0 -88 4
-114 21 -31 19 -34 25 -34 70 l0 49 285 0 285 0 0 -65z m-105 5 c0 -8 -8 -16
-17 -18 -13 -2 -18 3 -18 18 0 15 5 20 18 18 9 -2 17 -10 17 -18z m-3056 -78
c70 -35 76 -52 79 -257 3 -167 2 -188 -17 -230 -17 -37 -29 -50 -67 -67 -99
-43 -220 -4 -244 80 -7 23 -10 105 -8 219 3 203 9 220 79 255 44 23 133 23
178 0z m1720 0 c54 -27 74 -63 79 -137 l4 -65 -76 0 -76 0 0 59 c0 44 -4 60
-15 65 -25 9 -32 -29 -33 -174 -2 -178 4 -220 28 -220 23 0 30 19 30 81 0 37
-4 49 -15 49 -11 0 -15 12 -15 45 l0 45 85 0 85 0 0 -155 0 -155 -46 0 c-37 0
-47 4 -51 20 -5 19 -6 19 -35 -5 -58 -49 -152 -21 -191 55 -16 31 -17 59 -15
232 3 194 3 197 28 223 14 15 39 34 55 41 43 19 133 17 174 -4z m859 -1 c63
-32 73 -62 74 -214 2 -234 0 -251 -25 -288 -33 -49 -88 -72 -159 -67 -62 5
-96 23 -132 72 -20 26 -21 41 -21 219 0 218 6 241 73 276 50 27 140 28 190 2z
m495 5 c48 -20 66 -46 73 -109 l7 -57 -72 0 -71 0 0 41 c0 36 -2 40 -22 37
-19 -3 -23 -9 -23 -42 0 -38 3 -42 74 -90 99 -68 114 -90 119 -174 5 -93 -13
-136 -70 -162 -86 -39 -210 -14 -242 49 -10 17 -16 55 -16 91 l0 61 68 -3 67
-3 1 -40 c2 -75 3 -77 27 -73 18 2 23 10 25 40 4 52 -7 68 -88 123 -78 53 -98
82 -106 153 -8 65 13 121 55 149 40 27 141 32 194 9z m-3557 -118 l39 -123 3
123 3 122 59 0 60 0 0 -285 0 -285 -63 0 -64 0 -33 113 c-18 61 -36 115 -39
119 -3 4 -6 -46 -6 -110 l0 -117 -62 -3 -63 -3 0 286 0 285 63 0 64 0 39 -122z
m914 67 l0 -55 -40 0 -40 0 -2 -212 c0 -117 -1 -220 -2 -228 -1 -12 -18 -16
-73 -18 l-73 -3 0 231 0 230 -45 0 -45 0 0 55 0 55 160 0 160 0 0 -55z m187
43 c0 -7 1 -52 1 -100 2 -81 4 -88 22 -88 19 0 20 7 20 100 l0 100 75 0 75 0
0 -285 0 -285 -75 0 -75 0 0 121 c0 117 -1 120 -21 117 -20 -3 -22 -9 -21
-108 0 -57 -3 -110 -5 -117 -4 -9 -28 -13 -74 -13 l-69 0 0 285 0 285 74 0
c53 0 74 -4 73 -12z m393 -273 l0 -285 -69 0 c-53 0 -70 4 -75 15 -3 9 -5 137
-5 285 l1 270 74 0 74 0 0 -285z m226 163 l39 -123 3 123 3 122 59 0 60 0 0
-285 0 -285 -63 0 -64 0 -33 113 c-18 61 -36 115 -40 120 -4 4 -6 -41 -5 -100
1 -60 0 -114 -3 -121 -3 -8 -25 -12 -63 -12 l-59 0 0 285 0 285 63 0 64 0 39
-122z m1044 67 l0 -55 -40 0 -40 0 -2 -212 c0 -117 -1 -220 -2 -228 -1 -12
-18 -16 -73 -18 l-73 -3 0 231 0 230 -45 0 -45 0 0 55 0 55 160 0 160 0 0 -55z
m1170 0 l0 -55 -44 0 c-49 0 -52 -5 -55 -72 l-2 -38 51 0 50 0 0 -54 0 -55
-47 -3 -46 -3 -3 -57 -2 -58 54 0 54 0 0 -60 0 -60 -125 0 -125 0 0 285 0 285
120 0 120 0 0 -55z m303 42 c2 -6 4 -30 3 -52 l-1 -40 -47 -3 -48 -3 0 -55 0
-54 45 0 45 0 0 -55 0 -55 -44 0 c-25 0 -47 -3 -49 -7 -2 -5 -2 -32 1 -60 l4
-53 49 0 49 0 0 -60 0 -60 -125 0 -125 0 0 285 0 285 119 0 c86 0 120 -3 124
-13z m327 -87 l0 -100 26 0 26 0 -2 88 c-1 48 -2 93 -1 100 1 8 22 12 71 12
l70 0 0 -285 0 -286 -71 3 -72 3 -1 115 c-1 111 -2 115 -23 118 -23 3 -23 2
-23 -117 l0 -121 -75 0 -75 0 0 285 0 285 75 0 75 0 0 -100z m500 45 l0 -55
-50 0 -50 0 0 -55 0 -55 45 0 45 0 0 -55 0 -55 -45 0 -45 0 0 -59 0 -60 53 -3
52 -3 0 -55 0 -55 -127 -3 -128 -3 0 286 0 285 125 0 125 0 0 -55z m317 38
c43 -20 63 -63 63 -132 0 -65 -13 -96 -47 -115 -19 -10 -22 -15 -11 -16 9 0
26 -12 37 -26 19 -24 21 -40 21 -145 l0 -119 -70 0 -69 0 -3 127 c-3 112 -5
128 -20 131 -16 3 -18 -8 -18 -127 l0 -131 -75 0 -75 0 0 285 0 285 116 0 c88
0 125 -4 151 -17z m368 -38 l0 -50 -50 -5 -50 -5 -3 -52 -3 -53 50 0 51 0 0
-55 0 -55 -49 0 -48 0 1 -57 1 -58 53 -3 52 -3 0 -60 0 -59 -125 0 -125 0 0
285 0 286 123 -3 122 -3 0 -50z m-5105 -211 c0 -87 -1 -94 -20 -94 -19 0 -20
7 -20 98 0 103 4 119 27 101 9 -8 13 -39 13 -105z m265 93 c3 -12 5 -58 3
-102 -3 -67 -6 -80 -20 -83 -16 -3 -18 7 -18 96 0 54 3 102 7 105 12 13 23 7
28 -16z m3040 3 c0 -11 -9 -14 -30 -12 -35 4 -39 7 -30 22 10 16 60 8 60 -10z
m1125 6 c0 -22 -15 -27 -46 -15 -23 8 -25 12 -14 19 23 15 60 12 60 -4z
m-1773 -107 c22 -40 22 -42 4 -58 -32 -28 -39 -53 -31 -116 8 -62 33 -125 50
-125 17 0 11 -29 -8 -39 -16 -9 -18 -6 -14 20 3 17 0 29 -6 27 -18 -5 -74 53
-94 99 -27 61 -18 136 23 192 16 23 35 41 42 41 6 0 22 -19 34 -41z m323 -329
c0 -5 -2 -10 -4 -10 -3 0 -8 5 -11 10 -3 6 -1 10 4 10 6 0 11 -4 11 -10z
m1790 -115 c4 3 10 -4 13 -16 4 -16 3 -18 -8 -9 -10 8 -14 7 -18 -2 -3 -7 -5
5 -5 27 0 22 3 30 5 17 2 -12 8 -20 13 -17z m-150 -20 c0 -19 -4 -22 -21 -18
-19 5 -19 7 -5 15 9 5 14 14 10 19 -3 6 -12 5 -22 -3 -15 -12 -16 -11 -4 4 18
22 42 12 42 -17z m30 -5 c5 0 11 10 13 23 4 18 5 17 6 -6 1 -22 -3 -28 -16
-25 -10 2 -18 12 -19 23 -1 15 0 16 3 3 3 -10 8 -18 13 -18z m73 24 c-3 -9 0
-20 8 -25 11 -7 11 -9 -3 -9 -18 0 -25 30 -11 43 11 11 13 8 6 -9z m115 -20
c-3 -14 -5 -12 -10 9 -3 19 -2 25 4 19 6 -6 8 -18 6 -28z m31 3 c0 -21 -1 -21
-9 -2 -12 28 -12 37 0 30 6 -3 10 -16 9 -28z m25 21 c-5 -8 -2 -9 9 -5 10 3
17 2 17 -3 0 -6 -8 -10 -17 -10 -15 0 -16 -2 -3 -10 9 -6 10 -10 3 -10 -6 0
-15 5 -18 10 -7 12 0 40 10 40 4 0 3 -5 -1 -12z m73 -19 l2 -24 -8 25 -8 25
-11 -25 -11 -25 0 27 c-1 35 33 32 36 -3z m31 -5 c-3 -14 -5 -12 -10 9 -3 19
-2 25 4 19 6 -6 8 -18 6 -28z m26 24 c-5 -8 -2 -9 9 -5 10 3 17 2 17 -3 0 -6
-8 -10 -17 -10 -15 0 -16 -2 -3 -10 9 -6 10 -10 3 -10 -6 0 -15 5 -18 10 -7
12 0 40 10 40 4 0 3 -5 -1 -12z m79 -4 c-3 -9 0 -20 8 -25 11 -7 11 -9 -3 -9
-18 0 -25 30 -11 43 11 11 13 8 6 -9z m62 6 c3 -6 -1 -7 -9 -4 -11 4 -16 0
-16 -11 0 -12 5 -15 18 -10 14 5 15 4 5 -6 -17 -17 -38 3 -30 25 7 18 23 21
32 6z m82 -21 l2 -24 -9 25 -8 25 -8 -25 -8 -25 -7 25 -6 25 -11 -25 c-10 -23
-11 -24 -11 -3 -2 39 63 41 66 2z m-560 -1 c-3 -8 -6 -5 -6 6 -1 11 2 17 5 13
3 -3 4 -12 1 -19z m120 -10 c-3 -7 -5 -2 -5 12 0 14 2 19 5 13 2 -7 2 -19 0
-25z"/>
<path d="M3447 863 c-13 -12 -7 -54 9 -60 22 -8 33 8 27 40 -5 26 -22 35 -36
20z m23 -13 c0 -5 -5 -10 -11 -10 -5 0 -7 5 -4 10 3 6 8 10 11 10 2 0 4 -4 4
-10z m10 -30 c0 -5 -4 -10 -10 -10 -5 0 -10 5 -10 10 0 6 5 10 10 10 6 0 10
-4 10 -10z"/>
<path d="M3578 863 c-3 -4 -1 -21 3 -38 3 -16 7 -24 8 -16 1 10 4 11 15 2 11
-9 13 -6 12 21 -2 31 -28 52 -38 31z m27 -13 c3 -5 1 -10 -4 -10 -6 0 -11 5
-11 10 0 6 2 10 4 10 3 0 8 -4 11 -10z"/>
<path d="M3639 866 c-1 -3 -1 -15 -1 -26 0 -36 2 -40 23 -40 17 0 20 5 16 32
-2 21 -10 34 -20 36 -9 2 -17 1 -18 -2z m31 -46 c0 -5 -4 -10 -10 -10 -5 0
-10 5 -10 10 0 6 5 10 10 10 6 0 10 -4 10 -10z"/>
<path d="M3530 851 c0 -5 6 -12 13 -15 6 -3 3 -4 -8 -3 -12 1 -20 -5 -23 -18
-2 -16 -1 -17 7 -5 9 12 14 13 31 2 23 -14 24 -12 8 23 -11 24 -28 34 -28 16z"/>
<path d="M3780 850 c0 -5 5 -10 10 -10 6 0 10 5 10 10 0 6 -4 10 -10 10 -5 0
-10 -4 -10 -10z"/>
<path d="M710 664 c-11 -27 -14 -315 -4 -351 4 -14 14 -23 25 -23 18 0 19 11
19 194 0 165 -2 195 -15 200 -11 4 -19 -3 -25 -20z"/>
<path d="M3292 678 c-9 -9 -12 -63 -12 -195 0 -159 2 -184 16 -190 9 -3 20 0
25 8 14 23 11 352 -4 372 -10 14 -15 15 -25 5z"/>
<path d="M5600 610 c0 -53 2 -61 18 -58 14 3 17 14 17 58 0 44 -3 55 -17 58
-16 3 -18 -5 -18 -58z"/>
</g>
</svg>
